<svg xmlns="http://www.w3.org/2000/svg" xmlns:xlink="http://www.w3.org/1999/xlink" xmlns:lucid="lucid" width="1401" height="4181"><g transform="translate(560.5 120.5)" lucid:page-tab-id="0_0"><path d="M-1000-500h2000v5000h-2000z" fill="#fff"/><path d="M44.5-74a6 6 0 0 1 6-6h187a6 6 0 0 1 6 6v68a6 6 0 0 1-6 6h-187a6 6 0 0 1-6-6z" stroke="#3a414a" fill="#fff"/><use xlink:href="#a" transform="matrix(1,0,0,1,56.486423044609495,-68) translate(64.57407407407408 31.77777777777778)"/><path d="M54 526a6 6 0 0 1 6-6h168a6 6 0 0 1 6 6v28a6 6 0 0 1-6 6H60a6 6 0 0 1-6-6z" stroke="#3a414a" fill="#fff"/><use xlink:href="#b" transform="matrix(1,0,0,1,65.99921074823433,532) translate(29.358024691358025 17.77777777777778)"/><use xlink:href="#c" transform="matrix(1,0,0,1,65.99921074823433,532) translate(79.85185185185185 17.77777777777778)"/><path d="M94.43 85.8a7.8 7.8 0 0 1 7.54-5.8h117.07a4.6 4.6 0 0 1 4.45 5.8l-23.58 88.4a7.8 7.8 0 0 1-7.55 5.8H75.3a4.6 4.6 0 0 1-4.45-5.8z" stroke="#3a414a" fill="#fff"/><use xlink:href="#d" transform="matrix(1,0,0,1,74.30573516871291,85) translate(66.83216049382716 48.71527777777778)"/><path d="M142.72 224.03a6.63 6.63 0 0 1 8.9 0l73.95 66.94a5.43 5.43 0 0 1 0 8.06l-73.95 66.94a6.63 6.63 0 0 1-8.9 0l-73.94-66.94a5.43 5.43 0 0 1 0-8.06z" stroke="#3a414a" fill="#fff"/><use xlink:href="#e" transform="matrix(1,0,0,1,69.3294597410538,225) translate(15.498827160493827 74.65277777777777)"/><use xlink:href="#f" transform="matrix(1,0,0,1,69.3294597410538,225) translate(34.017345679012344 74.65277777777777)"/><use xlink:href="#g" transform="matrix(1,0,0,1,69.3294597410538,225) translate(83.33833333333334 74.65277777777777)"/><use xlink:href="#h" transform="matrix(1,0,0,1,69.3294597410538,225) translate(108.02969135802469 74.65277777777777)"/><use xlink:href="#i" transform="matrix(1,0,0,1,69.3294597410538,225) translate(127.16549382716049 74.65277777777777)"/><path d="M144 1v62.12" stroke="#3a414a" fill="none"/><path d="M144.5 1h-1V.5h1z" stroke="#3a414a" stroke-width=".05" fill="#3a414a"/><path d="M144 77.88l-4.64-14.26h9.27z" stroke="#3a414a" fill="#3a414a"/><path d="M147.17 181v24.43" stroke="#3a414a" fill="none"/><path d="M147.67 181h-1v-.5h1z" stroke="#3a414a" stroke-width=".05" fill="#3a414a"/><path d="M147.17 220.2l-4.63-14.27h9.27z" stroke="#3a414a" fill="#3a414a"/><path d="M-165.66 241a6 6 0 0 1 6-6h148a6 6 0 0 1 6 6v114c-26.71-20.04-43.35-20.04-53.43-20.04-16 0-37.27 20.04-53.27 20.04-9.92 0-26.72 0-53.28-20.04z" stroke="#3a414a" fill="#fff"/><use xlink:href="#j" transform="matrix(1,0,0,1,-160.65472387738566,240) translate(13.333333333333329 48.71527777777778)"/><use xlink:href="#k" transform="matrix(1,0,0,1,-160.65472387738566,240) translate(61.481481481481474 48.71527777777778)"/><path d="M300 241a6 6 0 0 1 6-6h148a6 6 0 0 1 6 6v114c-26.72-20.04-43.36-20.04-53.44-20.04-16 0-37.28 20.04-53.28 20.04-9.92 0-26.72 0-53.28-20.04z" stroke="#3a414a" fill="#fff"/><use xlink:href="#l" transform="matrix(1,0,0,1,305,240) translate(9.012345679012341 48.71527777777778)"/><use xlink:href="#k" transform="matrix(1,0,0,1,305,240) translate(65.80246913580245 48.71527777777778)"/><path d="M18.86 296h-5.5v-2h5.5zm46.63 0H42.46v-2H65.5z" stroke="#e81313" stroke-width=".05" fill="#e81313"/><path d="M66.57 294l-.08 1 .07 1h-1.1v-2h1.1z" fill="#e81313"/><path d="M66.6 294.02l-.1.98.1 1-1.16.02v-2.04h1.17zm-1.1 0v1.96l1.05-.02-.1-.96.1-.98z" stroke="#e81313" stroke-width=".05" fill="#e81313"/><path d="M12.35 299.63L-1.92 295l14.27-4.63z" fill="#e81313"/><path d="M13.35 301l-18.5-6 18.5-6zm-12.03-6l10.03 3.26v-6.52z" stroke="#e81313" stroke-width=".05" fill="#e81313"/><use xlink:href="#m" transform="matrix(1,0,0,1,18.864832101854688,284.3333333333333) translate(0 14.222222222222223)"/><path d="M248.37 296h-19.5v-2h19.5zm32.63 0h-2v-2h2z" stroke="#008a0e" stroke-width=".05" fill="#008a0e"/><path d="M228.88 296h-1.1l.08-1-.1-1h1.12z" fill="#008a0e"/><path d="M228.9 296.02h-1.16l.1-1.02-.1-1 1.17-.02zm-1.1-1.98l.08.96-.08.98h1.06v-1.96z" stroke="#008a0e" stroke-width=".05" fill="#008a0e"/><path d="M296.26 295L282 299.63v-9.26z" fill="#008a0e"/><path d="M299.5 295l-18.5 6v-12zm-16.5 3.26l10.03-3.26-10.03-3.26z" stroke="#008a0e" stroke-width=".05" fill="#008a0e"/><use xlink:href="#n" transform="matrix(1,0,0,1,248.3693067736058,284.3333333333333) translate(0 14.222222222222223)"/><path d="M-85.66 345.82V394a6 6 0 0 0 6 6H32.17a5 5 0 0 0 5-5 5 5 0 0 1 5-5h113.16a6 6 0 0 1 6 6v107.12" stroke="#3a414a" fill="none"/><path d="M-85.16 345.84h-1v-.26l1-.5z" stroke="#3a414a" stroke-width=".05" fill="#3a414a"/><path d="M161.33 517.88l-4.63-14.26h9.27z" stroke="#3a414a" fill="#3a414a"/><path d="M380 345.82v80.6a6 6 0 0 1-6 6H167.33a6 6 0 0 0-6 6v64.7" stroke="#3a414a" fill="none"/><path d="M380.5 345.84h-1v-.26l1-.5z" stroke="#3a414a" stroke-width=".05" fill="#3a414a"/><path d="M161.33 517.88l-4.63-14.26h9.27z" stroke="#3a414a" fill="#3a414a"/><path d="M70.14 686a6 6 0 0 1 6-6h187.03a6 6 0 0 1 6 6v68a6 6 0 0 1-6 6H76.14a6 6 0 0 1-6-6z" stroke="#3a414a" fill="#fff"/><use xlink:href="#a" transform="matrix(1,0,0,1,82.14114692199519,692) translate(64.57407407407408 31.77777777777778)"/><path d="M79.65 1286a6 6 0 0 1 6-6h168a6 6 0 0 1 6 6v28a6 6 0 0 1-6 6h-168a6 6 0 0 1-6-6z" stroke="#3a414a" fill="#fff"/><use xlink:href="#b" transform="matrix(1,0,0,1,91.65393462562002,1292) translate(29.358024691358025 17.77777777777778)"/><use xlink:href="#c" transform="matrix(1,0,0,1,91.65393462562002,1292) translate(79.85185185185185 17.77777777777778)"/><path d="M120.08 845.8a7.8 7.8 0 0 1 7.55-5.8H244.7a4.6 4.6 0 0 1 4.45 5.8l-23.58 88.4a7.8 7.8 0 0 1-7.54 5.8H100.96a4.6 4.6 0 0 1-4.45-5.8z" stroke="#3a414a" fill="#fff"/><use xlink:href="#o" transform="matrix(1,0,0,1,99.96045904609858,845) translate(57.5729012345679 48.71527777777778)"/><path d="M168.38 984.03a6.63 6.63 0 0 1 8.9 0l73.94 66.94a5.43 5.43 0 0 1 0 8.06l-73.94 66.94a6.63 6.63 0 0 1-8.9 0l-73.95-66.94a5.43 5.43 0 0 1 0-8.06z" stroke="#3a414a" fill="#fff"/><use xlink:href="#p" transform="matrix(1,0,0,1,94.98418361843946,985) translate(15.498827160493827 74.65277777777777)"/><use xlink:href="#f" transform="matrix(1,0,0,1,94.98418361843946,985) translate(34.017345679012344 74.65277777777777)"/><use xlink:href="#q" transform="matrix(1,0,0,1,94.98418361843946,985) translate(83.33833333333334 74.65277777777777)"/><use xlink:href="#h" transform="matrix(1,0,0,1,94.98418361843946,985) translate(108.02969135802469 74.65277777777777)"/><use xlink:href="#i" transform="matrix(1,0,0,1,94.98418361843946,985) translate(127.16549382716049 74.65277777777777)"/><path d="M169.65 761V823.12" stroke="#3a414a" fill="none"/><path d="M170.15 761h-1v-.5h1z" stroke="#3a414a" stroke-width=".05" fill="#3a414a"/><path d="M169.65 837.88l-4.63-14.26h9.27z" stroke="#3a414a" fill="#3a414a"/><path d="M172.83 941v24.43" stroke="#3a414a" fill="none"/><path d="M173.33 941h-1v-.5h1z" stroke="#3a414a" stroke-width=".05" fill="#3a414a"/><path d="M172.83 980.2l-4.64-14.27h9.26z" stroke="#3a414a" fill="#3a414a"/><path d="M-140 1001a6 6 0 0 1 6-6H14a6 6 0 0 1 6 6v114c-26.72-20.04-43.36-20.04-53.44-20.04-16 0-37.28 20.04-53.28 20.04-9.92 0-26.72 0-53.28-20.04z" stroke="#3a414a" fill="#fff"/><use xlink:href="#r" transform="matrix(1,0,0,1,-135,1000) translate(19.537037037037038 48.71527777777778)"/><use xlink:href="#s" transform="matrix(1,0,0,1,-135,1000) translate(60.21604938271605 48.71527777777778)"/><path d="M325.65 1001a6 6 0 0 1 6-6h148a6 6 0 0 1 6 6v114c-26.7-20.04-43.35-20.04-53.44-20.04-16 0-37.26 20.04-53.26 20.04-9.93 0-26.73 0-53.3-20.04z" stroke="#3a414a" fill="#fff"/><use xlink:href="#t" transform="matrix(1,0,0,1,330.65472387738555,1000) translate(59.5679012345679 48.71527777777778)"/><path d="M44.52 1056H39v-2h5.52zm46.62 0H68.12v-2h23.02z" stroke="#e81313" stroke-width=".05" fill="#e81313"/><path d="M92.23 1054l-.1 1 .1 1h-1.1v-2h1.1z" fill="#e81313"/><path d="M92.25 1054.02l-.08.98.08 1-1.16.03v-2.06h1.16zm-1.1 0v1.95h1.05l-.08-.97.08-.97z" stroke="#e81313" stroke-width=".05" fill="#e81313"/><path d="M38 1059.63L23.74 1055l14.26-4.63z" fill="#e81313"/><path d="M39 1061l-18.5-6 18.5-6zm-12.03-6l10.03 3.26v-6.52z" stroke="#e81313" stroke-width=".05" fill="#e81313"/><use xlink:href="#m" transform="matrix(1,0,0,1,44.51955597924035,1044.3333333333333) translate(0 14.222222222222223)"/><path d="M274.02 1056h-19.5v-2H274zm32.63 0h-2v-2h2z" stroke="#008a0e" stroke-width=".05" fill="#008a0e"/><path d="M254.54 1056h-1.1l.07-1-.07-1h1.1z" fill="#008a0e"/><path d="M254.56 1056.03h-1.16l.1-1.03-.1-1 1.16-.03zm-1.1-2l.08.97-.1.97h1.07v-1.94z" stroke="#008a0e" stroke-width=".05" fill="#008a0e"/><path d="M321.92 1055l-14.27 4.63v-9.27z" fill="#008a0e"/><path d="M325.15 1055l-18.5 6v-12zm-16.5 3.26l10.03-3.26-10.03-3.26z" stroke="#008a0e" stroke-width=".05" fill="#008a0e"/><use xlink:href="#n" transform="matrix(1,0,0,1,274.0240306509914,1044.3333333333333) translate(0 14.222222222222223)"/><path d="M-60 1105.82V1154a6 6 0 0 0 6 6H57.83a5 5 0 0 0 5-5 5 5 0 0 1 5-5H181a6 6 0 0 1 6 6v107.12" stroke="#3a414a" fill="none"/><path d="M-59.5 1105.84h-1v-.26l1-.5z" stroke="#3a414a" stroke-width=".05" fill="#3a414a"/><path d="M187 1277.88l-4.65-14.26h9.27z" stroke="#3a414a" fill="#3a414a"/><path d="M405.65 1105.82v80.6a6 6 0 0 1-6 6H193a6 6 0 0 0-6 6v64.7" stroke="#3a414a" fill="none"/><path d="M406.15 1105.84h-1v-.26l1-.5z" stroke="#3a414a" stroke-width=".05" fill="#3a414a"/><path d="M187 1277.88l-4.65-14.26h9.27z" stroke="#3a414a" fill="#3a414a"/><path d="M-540-94a6 6 0 0 1 6-6h413.65a6 6 0 0 1 6 6v228a6 6 0 0 1-6 6H-534a6 6 0 0 1-6-6z" stroke="#000" stroke-opacity="0" fill="#fff" fill-opacity="0"/><use xlink:href="#u" transform="matrix(1,0,0,1,-535,-95) translate(172.25925925925927 118.40277777777777)"/><use xlink:href="#v" transform="matrix(1,0,0,1,-535,-95) translate(224.0493827160494 118.40277777777777)"/><path d="M-380 686a6 6 0 0 1 6-6h228a6 6 0 0 1 6 6v48a6 6 0 0 1-6 6h-228a6 6 0 0 1-6-6z" stroke="#000" stroke-opacity="0" fill="#fff" fill-opacity="0"/><use xlink:href="#u" transform="matrix(1,0,0,1,-375,685) translate(79.25925925925927 30.27777777777778)"/><use xlink:href="#w" transform="matrix(1,0,0,1,-375,685) translate(131.0493827160494 30.27777777777778)"/><path d="M90.14 1426a6 6 0 0 1 6-6h187.03a6 6 0 0 1 6 6v68a6 6 0 0 1-6 6H96.14a6 6 0 0 1-6-6z" stroke="#3a414a" fill="#fff"/><use xlink:href="#a" transform="matrix(1,0,0,1,102.14114692199513,1432) translate(64.57407407407408 31.77777777777778)"/><path d="M99.65 2026a6 6 0 0 1 6-6h168a6 6 0 0 1 6 6v28a6 6 0 0 1-6 6h-168a6 6 0 0 1-6-6z" stroke="#3a414a" fill="#fff"/><use xlink:href="#b" transform="matrix(1,0,0,1,111.65393462561997,2032) translate(29.358024691358025 17.77777777777778)"/><use xlink:href="#c" transform="matrix(1,0,0,1,111.65393462561997,2032) translate(79.85185185185185 17.77777777777778)"/><path d="M140.08 1585.8a7.8 7.8 0 0 1 7.55-5.8H264.7a4.6 4.6 0 0 1 4.45 5.8l-23.58 88.4a7.8 7.8 0 0 1-7.54 5.8H120.96a4.6 4.6 0 0 1-4.45-5.8z" stroke="#3a414a" fill="#fff"/><use xlink:href="#d" transform="matrix(1,0,0,1,119.96045904609858,1585) translate(66.83216049382716 48.71527777777778)"/><path d="M188.38 1724.03a6.63 6.63 0 0 1 8.9 0l73.94 66.94a5.43 5.43 0 0 1 0 8.06l-73.95 66.94a6.63 6.63 0 0 1-8.9 0l-73.94-66.94a5.43 5.43 0 0 1 0-8.06z" stroke="#3a414a" fill="#fff"/><use xlink:href="#e" transform="matrix(1,0,0,1,114.98418361843946,1725) translate(31.73956790123457 61.52777777777778)"/><use xlink:href="#f" transform="matrix(1,0,0,1,114.98418361843946,1725) translate(50.25808641975309 61.52777777777778)"/><use xlink:href="#x" transform="matrix(1,0,0,1,114.98418361843946,1725) translate(99.57907407407407 61.52777777777778)"/><use xlink:href="#h" transform="matrix(1,0,0,1,114.98418361843946,1725) translate(62.26425925925926 88.19444444444446)"/><use xlink:href="#y" transform="matrix(1,0,0,1,114.98418361843946,1725) translate(81.40006172839506 88.19444444444446)"/><path d="M189.65 1501V1563.12" stroke="#3a414a" fill="none"/><path d="M190.15 1501h-1v-.5h1z" stroke="#3a414a" stroke-width=".05" fill="#3a414a"/><path d="M189.65 1577.88l-4.63-14.27 9.27.02z" stroke="#3a414a" fill="#3a414a"/><path d="M192.83 1681v24.43" stroke="#3a414a" fill="none"/><path d="M193.33 1681h-1v-.5h1z" stroke="#3a414a" stroke-width=".05" fill="#3a414a"/><path d="M192.83 1720.2l-4.64-14.27h9.26z" stroke="#3a414a" fill="#3a414a"/><path d="M-120 1741a6 6 0 0 1 6-6H34a6 6 0 0 1 6 6v114c-26.72-20.04-43.36-20.04-53.44-20.04-16 0-37.28 20.04-53.28 20.04-9.92 0-26.72 0-53.28-20.04z" stroke="#3a414a" fill="#fff"/><use xlink:href="#z" transform="matrix(1,0,0,1,-115,1740) translate(60.833333333333336 48.71527777777778)"/><path d="M345.65 1741a6 6 0 0 1 6-6h148a6 6 0 0 1 6 6v114c-26.7-20.04-43.35-20.04-53.44-20.04-16 0-37.26 20.04-53.26 20.04-9.93 0-26.73 0-53.3-20.04z" stroke="#3a414a" fill="#fff"/><use xlink:href="#A" transform="matrix(1,0,0,1,350.65472387738566,1740) translate(56.882716049382715 48.71527777777778)"/><path d="M64.52 1796H59v-2h5.52zm46.62 0H88.12v-2h23.02z" stroke="#e81313" stroke-width=".05" fill="#e81313"/><path d="M112.23 1794l-.1 1 .1 1h-1.1v-2h1.1z" fill="#e81313"/><path d="M112.25 1794.02l-.08.98.08 1-1.16.03v-2.06h1.16zm-1.1 0v1.95h1.05l-.08-.97.08-.97z" stroke="#e81313" stroke-width=".05" fill="#e81313"/><path d="M58 1799.63L43.74 1795l14.26-4.63z" fill="#e81313"/><path d="M59 1801l-18.5-6 18.5-6zm-12.03-6l10.03 3.26v-6.52z" stroke="#e81313" stroke-width=".05" fill="#e81313"/><use xlink:href="#m" transform="matrix(1,0,0,1,64.51955597924035,1784.3333333333333) translate(0 14.222222222222223)"/><path d="M294.02 1796h-19.5v-2H294zm32.63 0h-2v-2h2z" stroke="#008a0e" stroke-width=".05" fill="#008a0e"/><path d="M274.54 1796h-1.12l.1-1-.1-1h1.12z" fill="#008a0e"/><path d="M274.56 1796.03h-1.16l.1-1.03-.1-1 1.16-.03zm-1.1-2l.08.97-.1.97h1.07v-1.94z" stroke="#008a0e" stroke-width=".05" fill="#008a0e"/><path d="M341.92 1795l-14.27 4.63v-9.27z" fill="#008a0e"/><path d="M345.15 1795l-18.5 6v-12zm-16.5 3.26l10.03-3.26-10.03-3.26z" stroke="#008a0e" stroke-width=".05" fill="#008a0e"/><use xlink:href="#n" transform="matrix(1,0,0,1,294.02403065099145,1784.3333333333333) translate(0 14.222222222222223)"/><path d="M-40 1845.82V1894a6 6 0 0 0 6 6H77.83a5 5 0 0 0 5-5 5 5 0 0 1 5-5H201a6 6 0 0 1 6 6v107.12" stroke="#3a414a" fill="none"/><path d="M-39.5 1845.84h-1v-.26l1-.5z" stroke="#3a414a" stroke-width=".05" fill="#3a414a"/><path d="M207 2017.88l-4.65-14.26h9.27z" stroke="#3a414a" fill="#3a414a"/><path d="M425.65 1845.82v80.6a6 6 0 0 1-6 6H213a6 6 0 0 0-6 6v64.7" stroke="#3a414a" fill="none"/><path d="M426.15 1845.84h-1v-.26l1-.5z" stroke="#3a414a" stroke-width=".05" fill="#3a414a"/><path d="M207 2017.88l-4.65-14.26h9.27z" stroke="#3a414a" fill="#3a414a"/><path d="M-340 1486a6 6 0 0 1 6-6h228a6 6 0 0 1 6 6v48a6 6 0 0 1-6 6h-228a6 6 0 0 1-6-6z" stroke="#000" stroke-opacity="0" fill="#fff" fill-opacity="0"/><use xlink:href="#u" transform="matrix(1,0,0,1,-335,1485) translate(79.25925925925927 30.27777777777778)"/><use xlink:href="#B" transform="matrix(1,0,0,1,-335,1485) translate(131.0493827160494 30.27777777777778)"/><path d="M119.8 2126a6 6 0 0 1 6-6h187.03a6 6 0 0 1 6 6v68a6 6 0 0 1-6 6H125.8a6 6 0 0 1-6-6z" stroke="#3a414a" fill="#fff"/><use xlink:href="#a" transform="matrix(1,0,0,1,131.80742916576958,2132) translate(64.57407407407408 31.77777777777778)"/><path d="M145.7 3086a6 6 0 0 1 6-6h168a6 6 0 0 1 6 6v28a6 6 0 0 1-6 6h-168a6 6 0 0 1-6-6z" stroke="#3a414a" fill="#fff"/><use xlink:href="#b" transform="matrix(1,0,0,1,157.69442531564042,3092) translate(29.358024691358025 17.77777777777778)"/><use xlink:href="#c" transform="matrix(1,0,0,1,157.69442531564042,3092) translate(79.85185185185185 17.77777777777778)"/><path d="M149.6 2285.8a7.8 7.8 0 0 1 7.55-5.8h171.2a4.6 4.6 0 0 1 4.45 5.8l-23.57 88.4a7.8 7.8 0 0 1-7.55 5.8h-171.2a4.6 4.6 0 0 1-4.45-5.8z" stroke="#3a414a" fill="#fff"/><path d="M219.32 2201v62.1" stroke="#3a414a" fill="none"/><path d="M219.82 2201h-1v-.5h1z" stroke="#3a414a" stroke-width=".05" fill="#3a414a"/><path d="M219.32 2277.88l-4.63-14.27h9.26z" stroke="#3a414a" fill="#3a414a"/><path d="M151.35 2316.6a6 6 0 0 1 6-6h153.7a6 6 0 0 1 6 6v17.4a6 6 0 0 1-6 6h-153.7a6 6 0 0 1-6-6z" fill="#fff" fill-opacity="0"/><use xlink:href="#C" transform="matrix(1,0,0,1,156.34914945396,2315.6) translate(3.666666666666657 19.200000000000003)"/><use xlink:href="#D" transform="matrix(1,0,0,1,156.34914945396,2315.6) translate(36.99999999999999 19.200000000000003)"/><use xlink:href="#E" transform="matrix(1,0,0,1,156.34914945396,2315.6) translate(71.66666666666666 19.200000000000003)"/><use xlink:href="#F" transform="matrix(1,0,0,1,156.34914945396,2315.6) translate(91.66666666666666 19.200000000000003)"/><use xlink:href="#G" transform="matrix(1,0,0,1,156.34914945396,2315.6) translate(112.33333333333333 19.200000000000003)"/><path d="M169.9 2445.8a7.8 7.8 0 0 1 7.55-5.8h115.72a4.6 4.6 0 0 1 4.45 5.8l-17.15 64.32a7.8 7.8 0 0 1-7.55 5.8H157.2a4.6 4.6 0 0 1-4.45-5.8z" stroke="#3a414a" fill="#fff"/><use xlink:href="#H" transform="matrix(1,0,0,1,156.20007039238072,2445) translate(34.94327160493827 23.96527777777778)"/><use xlink:href="#I" transform="matrix(1,0,0,1,156.20007039238072,2445) translate(27.35685185185185 50.63194444444445)"/><path d="M221.35 2381v29h-.02v13.12" stroke="#3a414a" fill="none"/><path d="M221.85 2381h-1v-.5h1z" stroke="#3a414a" stroke-width=".05" fill="#3a414a"/><path d="M221.33 2437.88l-4.64-14.26h9.27z" stroke="#3a414a" fill="#3a414a"/><path d="M225.2 2516.92v42.12" stroke="#3a414a" fill="none"/><path d="M225.7 2516.93h-1v-.5h1z" stroke="#3a414a" stroke-width=".05" fill="#3a414a"/><path d="M225.2 2573.8l-4.65-14.26h9.27z" stroke="#3a414a" fill="#3a414a"/><path d="M107.35 2581.92a6 6 0 0 1 6-6h223.67a6 6 0 0 1 6 6v100.04a6 6 0 0 1-6 6H113.35a6 6 0 0 1-6-6z" stroke="#3a414a" fill="#fff"/><use xlink:href="#J" transform="matrix(1,0,0,1,119.3503339706248,2587.9220210263647) translate(9.518518518518519 34.46527777777778)"/><use xlink:href="#h" transform="matrix(1,0,0,1,119.3503339706248,2587.9220210263647) translate(90.81481481481481 34.46527777777778)"/><use xlink:href="#K" transform="matrix(1,0,0,1,119.3503339706248,2587.9220210263647) translate(109.9506172839506 34.46527777777778)"/><use xlink:href="#f" transform="matrix(1,0,0,1,119.3503339706248,2587.9220210263647) translate(128.4691358024691 34.46527777777778)"/><use xlink:href="#x" transform="matrix(1,0,0,1,119.3503339706248,2587.9220210263647) translate(177.79012345679013 34.46527777777778)"/><use xlink:href="#L" transform="matrix(1,0,0,1,119.3503339706248,2587.9220210263647) translate(33.59259259259261 61.13194444444445)"/><use xlink:href="#h" transform="matrix(1,0,0,1,119.3503339706248,2587.9220210263647) translate(116.06172839506173 61.13194444444445)"/><use xlink:href="#M" transform="matrix(1,0,0,1,119.3503339706248,2587.9220210263647) translate(135.19753086419752 61.13194444444445)"/><path d="M224.1 2731.5a6.63 6.63 0 0 1 8.9 0l73.93 66.93a5.43 5.43 0 0 1 0 8.06L233 2873.42a6.63 6.63 0 0 1-8.9 0l-73.96-66.94a5.43 5.43 0 0 1 0-8.07z" stroke="#3a414a" fill="#fff"/><use xlink:href="#J" transform="matrix(1,0,0,1,150.69442531564042,2732.461053276685) translate(30.875370370370373 61.52777777777778)"/><use xlink:href="#N" transform="matrix(1,0,0,1,150.69442531564042,2732.461053276685) translate(112.17166666666667 61.52777777777778)"/><use xlink:href="#O" transform="matrix(1,0,0,1,150.69442531564042,2732.461053276685) translate(36.770432098765426 88.19444444444446)"/><use xlink:href="#P" transform="matrix(1,0,0,1,150.69442531564042,2732.461053276685) translate(83.56055555555557 88.19444444444446)"/><path d="M228.54 2688.96v23.93" stroke="#3a414a" fill="none"/><path d="M229.04 2688.97h-1v-.5h1z" stroke="#3a414a" stroke-width=".05" fill="#3a414a"/><path d="M228.54 2727.65l-4.64-14.26h9.27z" stroke="#3a414a" fill="#3a414a"/><path d="M-78.64 2748.46a6 6 0 0 1 6-6h148a6 6 0 0 1 6 6v114c-26.7-20.04-43.35-20.04-53.44-20.04-16 0-37.28 20.04-53.28 20.04-9.9 0-26.72 0-53.28-20.04z" stroke="#3a414a" fill="#fff"/><use xlink:href="#z" transform="matrix(1,0,0,1,-73.63503416447946,2747.461053276685) translate(60.833333333333336 48.71527777777778)"/><path d="M387.02 2748.46a6 6 0 0 1 6-6h148a6 6 0 0 1 6 6v114c-26.72-20.04-43.36-20.04-53.44-20.04-16 0-37.28 20.04-53.28 20.04-9.92 0-26.72 0-53.28-20.04z" stroke="#3a414a" fill="#fff"/><use xlink:href="#A" transform="matrix(1,0,0,1,392.0196897129062,2747.461053276685) translate(56.882716049382715 48.71527777777778)"/><path d="M103.06 2803.46h-2.7v-2h2.7zm43.8 0h-20.2v-2h20.2z" stroke="#e81313" stroke-width=".05" fill="#e81313"/><path d="M147.94 2801.47l-.1 1 .1.98h-1.1v-2h1.1z" fill="#e81313"/><path d="M147.96 2801.48l-.08.98.08 1-1.16.03v-2.06h1.17zm-1.1 0v1.96l1.05-.02-.07-.96.08-.97z" stroke="#e81313" stroke-width=".05" fill="#e81313"/><path d="M99.37 2807.1l-14.27-4.64 14.27-4.63z" fill="#e81313"/><path d="M100.37 2808.47l-18.5-6 18.5-6.02zm-12.03-6l10.03 3.25v-6.52z" stroke="#e81313" stroke-width=".05" fill="#e81313"/><use xlink:href="#m" transform="matrix(1,0,0,1,103.05715974560108,2791.7943866100186) translate(0 14.222222222222223)"/><path d="M332.56 2803.46h-22.34v-2h22.34zm35.46 0h-4.84v-2h4.84z" stroke="#008a0e" stroke-width=".05" fill="#008a0e"/><path d="M310.25 2803.46h-1.12l.1-1-.1-1h1.12z" fill="#008a0e"/><path d="M310.27 2803.5h-1.16l.1-1.04-.1-1 1.17-.02zm-1.1-2l.08.96-.1.98h1.07v-1.95z" stroke="#008a0e" stroke-width=".05" fill="#008a0e"/><path d="M383.28 2802.46l-14.26 4.64v-9.27z" fill="#008a0e"/><path d="M386.52 2802.46l-18.5 6v-12zm-16.5 3.26l10.03-3.26-10.03-3.26z" stroke="#008a0e" stroke-width=".05" fill="#008a0e"/><use xlink:href="#n" transform="matrix(1,0,0,1,332.56163441735225,2791.7943866100186) translate(0 14.222222222222223)"/><path d="M467.02 2853.28v106.86a6 6 0 0 1-6 6H246.3a6 6 0 0 0-6 6v90.98" stroke="#3a414a" fill="none"/><path d="M467.52 2853.3h-1v-.26l1-.5z" stroke="#3a414a" stroke-width=".05" fill="#3a414a"/><path d="M240.3 3077.88l-4.63-14.26h9.27z" stroke="#3a414a" fill="#3a414a"/><path d="M1.36 2853.28v106.86a6 6 0 0 0 6 6H229.7a6 6 0 0 1 6 6v90.98" stroke="#3a414a" fill="none"/><path d="M1.86 2853.3h-1v-.26l1-.5z" stroke="#3a414a" stroke-width=".05" fill="#3a414a"/><path d="M235.7 3077.88l-4.64-14.26h9.27z" stroke="#3a414a" fill="#3a414a"/><path d="M122.2 3266a6 6 0 0 1 6-6h177.18a6 6 0 0 1 6 6v51.8a6 6 0 0 1-6 6h-177.2a6 6 0 0 1-6-6z" stroke="#3a414a" fill="#fff"/><use xlink:href="#a" transform="matrix(1,0,0,1,134.19382776677148,3272) translate(59.574074074074076 25.27777777777778)"/><path d="M139.95 3382a7.8 7.8 0 0 1 7.55-5.8h155.04a4.6 4.6 0 0 1 4.45 5.8l-13.93 52.2a7.8 7.8 0 0 1-7.55 5.8H130.5a4.6 4.6 0 0 1-4.47-5.8z" stroke="#3a414a" fill="#fff"/><use xlink:href="#C" transform="matrix(1,0,0,1,129.48642284499263,3381.2) translate(12.171666666666662 32.7)"/><use xlink:href="#D" transform="matrix(1,0,0,1,129.48642284499263,3381.2) translate(45.504999999999995 32.7)"/><use xlink:href="#E" transform="matrix(1,0,0,1,129.48642284499263,3381.2) translate(80.17166666666665 32.7)"/><use xlink:href="#F" transform="matrix(1,0,0,1,129.48642284499263,3381.2) translate(100.17166666666665 32.7)"/><use xlink:href="#G" transform="matrix(1,0,0,1,129.48642284499263,3381.2) translate(120.83833333333332 32.7)"/><path d="M216.8 3324.8v25.06a.14.14 0 0 1-.15.14.14.14 0 0 0-.14.14v9.18" stroke="#3a414a" fill="none"/><path d="M217.3 3324.8h-1v-.5h1z" stroke="#3a414a" stroke-width=".05" fill="#3a414a"/><path d="M216.5 3374.08l-4.62-14.26h9.27z" stroke="#3a414a" fill="#3a414a"/><path d="M216.5 3441v58.93a.07.07 0 0 1-.05.07.07.07 0 0 0-.07.07v43.05" stroke="#3a414a" fill="none"/><path d="M217 3441h-1v-.5h1z" stroke="#3a414a" stroke-width=".05" fill="#3a414a"/><path d="M216.38 3557.88l-4.64-14.26H221z" stroke="#3a414a" fill="#3a414a"/><path d="M167.68 3565.8a7.8 7.8 0 0 1 7.54-5.8H291.5a4.6 4.6 0 0 1 4.45 5.8l-13.8 51.74a7.8 7.8 0 0 1-7.54 5.8H158.34a4.6 4.6 0 0 1-4.45-5.8z" stroke="#3a414a" fill="#fff"/><use xlink:href="#Q" transform="matrix(1,0,0,1,157.3351669798514,3565) translate(45.19135802469136 18.111111111111114)"/><use xlink:href="#R" transform="matrix(1,0,0,1,157.3351669798514,3565) translate(3.9876543209876445 44.777777777777786)"/><path d="M165.28 3724.14a14.96 14.96 0 0 1 10.33-4.14h87.43a14.96 14.96 0 0 1 10.33 4.14l24.47 23.38a5.73 5.73 0 0 1 0 8.3l-24.47 23.37a14.96 14.96 0 0 1-10.33 4.13H175.6a14.96 14.96 0 0 1-10.32-4.14l-24.47-23.4a5.73 5.73 0 0 1 0-8.28z" stroke="#3a414a" fill="#fff"/><use xlink:href="#S" transform="matrix(1,0,0,1,141.477038549141,3725) translate(59.17783950617284 31.27777777777778)"/><path d="M224.92 3624.33v78.8" stroke="#3a414a" fill="none"/><path d="M225.42 3624.35h-1v-.52h1z" stroke="#3a414a" stroke-width=".05" fill="#3a414a"/><path d="M224.92 3717.88l-4.64-14.26h9.27z" stroke="#3a414a" fill="#3a414a"/><path d="M219.32 3784.33v78.8" stroke="#3a414a" fill="none"/><path d="M219.82 3784.35h-1v-.52h1z" stroke="#3a414a" stroke-width=".05" fill="#3a414a"/><path d="M219.32 3877.88l-4.63-14.26h9.26z" stroke="#3a414a" fill="#3a414a"/><path d="M116.8 3886a6 6 0 0 1 6-6h193.04a6 6 0 0 1 6 6v128a6 6 0 0 1-6 6H122.8a6 6 0 0 1-6-6z" stroke="#3a414a" fill="#fff"/><g><use xlink:href="#T" transform="matrix(1,0,0,1,128.8004465179855,3892) translate(5.548148148148144 14.933333333333335)"/><use xlink:href="#U" transform="matrix(1,0,0,1,128.8004465179855,3892) translate(45.940740740740736 14.933333333333335)"/><use xlink:href="#V" transform="matrix(1,0,0,1,128.8004465179855,3892) translate(62.01481481481481 14.933333333333335)"/><use xlink:href="#W" transform="matrix(1,0,0,1,128.8004465179855,3892) translate(102.4074074074074 14.933333333333335)"/><use xlink:href="#X" transform="matrix(1,0,0,1,128.8004465179855,3892) translate(118.48148148148148 14.933333333333335)"/><use xlink:href="#Y" transform="matrix(1,0,0,1,128.8004465179855,3892) translate(140.2074074074074 14.933333333333335)"/><use xlink:href="#Z" transform="matrix(1,0,0,1,128.8004465179855,3892) translate(77.54444444444444 37.333333333333336)"/><use xlink:href="#aa" transform="matrix(1,0,0,1,128.8004465179855,3892) translate(29.19259259259259 59.73333333333334)"/><use xlink:href="#ab" transform="matrix(1,0,0,1,128.8004465179855,3892) translate(141.9185185185185 59.73333333333334)"/><use xlink:href="#ac" transform="matrix(1,0,0,1,128.8004465179855,3892) translate(19.107407407407408 82.13333333333334)"/><use xlink:href="#ad" transform="matrix(1,0,0,1,128.8004465179855,3892) translate(131.83333333333334 82.13333333333334)"/><use xlink:href="#ae" transform="matrix(1,0,0,1,128.8004465179855,3892) translate(146.35185185185185 82.13333333333334)"/><use xlink:href="#af" transform="matrix(1,0,0,1,128.8004465179855,3892) translate(56.82962962962963 104.53333333333335)"/><use xlink:href="#Z" transform="matrix(1,0,0,1,128.8004465179855,3892) translate(98.25925925925927 104.53333333333335)"/><use xlink:href="#ag" transform="matrix(1,0,0,1,128.8004465179855,3892) translate(51.85185185185185 126.93333333333335)"/><use xlink:href="#U" transform="matrix(1,0,0,1,128.8004465179855,3892) translate(67.4074074074074 126.93333333333335)"/><use xlink:href="#ah" transform="matrix(1,0,0,1,128.8004465179855,3892) translate(83.48148148148148 126.93333333333335)"/><use xlink:href="#ai" transform="matrix(1,0,0,1,128.8004465179855,3892) translate(99.03703703703704 126.93333333333335)"/><use xlink:href="#aj" transform="matrix(1,0,0,1,128.8004465179855,3892) translate(109.40740740740742 126.93333333333335)"/></g><path d="M115.8 3950H82.3a6 6 0 0 1-6-6v-186.33a6 6 0 0 1 6-6h39.86" stroke="#3a414a" fill="none"/><path d="M116.3 3950.5h-.5v-1h.5z" stroke="#3a414a" stroke-width=".05" fill="#3a414a"/><path d="M136.92 3751.67l-14.26 4.63v-9.27z" stroke="#3a414a" fill="#3a414a"/><path d="M300.6 3751.67h125.47" stroke="#3a414a" fill="none"/><path d="M300.6 3752.17h-.54l.04-.5-.04-.5h.55z" stroke="#3a414a" stroke-width=".05" fill="#3a414a"/><path d="M440.82 3751.67l-14.26 4.63v-9.27z" stroke="#3a414a" fill="#3a414a"/><path d="M505.25 3701.17a7.75 7.75 0 0 1 9.5 0l60.5 46.82a4.64 4.64 0 0 1 0 7.34l-60.5 46.82a7.75 7.75 0 0 1-9.5 0l-60.5-46.82a4.64 4.64 0 0 1 0-7.35z" stroke="#3a414a" fill="#fff"/><g><use xlink:href="#ak" transform="matrix(1,0,0,1,445,3702.499999877903) translate(11.938333333333341 53.01875)"/><use xlink:href="#al" transform="matrix(1,0,0,1,445,3702.499999877903) translate(46.56055555555556 53.01875)"/><use xlink:href="#am" transform="matrix(1,0,0,1,445,3702.499999877903) translate(82.07166666666667 53.01875)"/><use xlink:href="#an" transform="matrix(1,0,0,1,445,3702.499999877903) translate(95.405 53.01875)"/><use xlink:href="#ao" transform="matrix(1,0,0,1,445,3702.499999877903) translate(109.18277777777777 53.01875)"/></g><path d="M661 3751.92v2h-17.16v-2zm-82.44.75v-2h34.66v2z" stroke="#008a0e" stroke-width=".05" fill="#008a0e"/><path d="M578.58 3752.67h-1.13l.1-1-.08-.94 1.1-.06z" fill="#008a0e"/><path d="M578.6 3752.7h-1.17l.1-1.03-.08-.96 1.16-.06zm-1.1-1.94l.08.9-.1.98h1.08v-1.95z" stroke="#008a0e" stroke-width=".05" fill="#008a0e"/><path d="M676.26 3752.92l-14.26 4.63v-9.27z" fill="#008a0e"/><path d="M679.5 3752.92l-18.5 6v-12zm-16.5 3.26l10.03-3.26-10.03-3.26z" stroke="#008a0e" stroke-width=".05" fill="#008a0e"/><g><use xlink:href="#n" transform="matrix(1,0,0,1,613.2205222085041,3741.624999927945) translate(0 14.222222222222223)"/></g><path d="M680 3726a6 6 0 0 1 6-6h128a6 6 0 0 1 6 6v59.83c-23.38-11-37.94-11-46.76-11-14 0-32.62 11-46.62 11-8.68 0-23.38 0-46.62-11z" stroke="#3a414a" fill="#fff"/><g><use xlink:href="#ap" transform="matrix(1,0,0,1,685,3725) translate(0.9876543209876445 26.21527777777778)"/></g><path d="M511 3861h-2v-8.44h2zm0-29.78h-2v-25.94h2z" stroke="#e81313" stroke-width=".05" fill="#e81313"/><path d="M510 3804.28l1-.06v1.1h-2v-1.1z" fill="#e81313"/><path d="M510 3804.26l1.02-.07v1.14h-2.04v-1.15zm-.98 1.02h1.96v-1.04l-.98.07-.98-.06z" stroke="#e81313" stroke-width=".05" fill="#e81313"/><path d="M510 3876.26l-4.63-14.26h9.26z" fill="#e81313"/><path d="M510 3879.5l-6-18.5h12zm-3.26-16.5l3.26 10.03 3.26-10.03z" stroke="#e81313" stroke-width=".05" fill="#e81313"/><g><use xlink:href="#m" transform="matrix(1,0,0,1,498.1975308641975,3831.225385576596) translate(0 14.222222222222223)"/></g><path d="M435 3886a6 6 0 0 1 6-6h138a6 6 0 0 1 6 6v86.64c-25.05-15.47-40.65-15.47-50.1-15.47-15 0-34.95 15.47-49.95 15.47-9.3 0-25.05 0-49.95-15.47z" stroke="#3a414a" fill="#fff"/><g><use xlink:href="#aq" transform="matrix(1,0,0,1,440,3885) translate(20.066666666666663 17.058333333333337)"/><use xlink:href="#ar" transform="matrix(1,0,0,1,440,3885) translate(93.95555555555556 17.058333333333337)"/><use xlink:href="#as" transform="matrix(1,0,0,1,440,3885) translate(42.51851851851851 39.458333333333336)"/><use xlink:href="#at" transform="matrix(1,0,0,1,440,3885) translate(23.903703703703698 61.85833333333334)"/></g><path d="M750 3781.25v181.86" stroke="#3a414a" fill="none"/><path d="M750.5 3781.26h-1v-.36l1-.3z" stroke="#3a414a" stroke-width=".05" fill="#3a414a"/><path d="M750 3977.88l-4.63-14.27h9.26z" stroke="#3a414a" fill="#3a414a"/><path d="M510 3965.76V4004a6 6 0 0 0 6 6h147.12" stroke="#3a414a" fill="none"/><path d="M510.5 3965.77h-1v-.3l1-.4z" stroke="#3a414a" stroke-width=".05" fill="#3a414a"/><path d="M677.88 4010l-14.26 4.64v-9.28z" stroke="#3a414a" fill="#3a414a"/><path d="M680 3986a6 6 0 0 1 6-6h128a6 6 0 0 1 6 6v48a6 6 0 0 1-6 6H686a6 6 0 0 1-6-6z" stroke="#3a414a" fill="#fff"/><g><use xlink:href="#b" transform="matrix(1,0,0,1,692,3992) translate(9.358024691358025 22.27777777777778)"/><use xlink:href="#c" transform="matrix(1,0,0,1,692,3992) translate(59.851851851851855 22.27777777777778)"/></g><path d="M-220 2146a6 6 0 0 1 6-6H14a6 6 0 0 1 6 6v48a6 6 0 0 1-6 6h-228a6 6 0 0 1-6-6z" fill="none"/><g><use xlink:href="#au" transform="matrix(1,0,0,1,-220,2140) translate(84.25925925925927 34.44444444444444)"/><use xlink:href="#av" transform="matrix(1,0,0,1,-220,2140) translate(136.0493827160494 34.44444444444444)"/></g><path d="M-205.66 3246a6 6 0 0 1 6-6h228a6 6 0 0 1 6 6v48a6 6 0 0 1-6 6h-228a6 6 0 0 1-6-6z" fill="none"/><g><use xlink:href="#au" transform="matrix(1,0,0,1,-205.65472387738566,3240) translate(84.25925925925927 34.44444444444444)"/><use xlink:href="#aw" transform="matrix(1,0,0,1,-205.65472387738566,3240) translate(136.0493827160494 34.44444444444444)"/></g><defs><path fill="#3a414a" d="M185-189c-5-48-123-54-124 2 14 75 158 14 163 119 3 78-121 87-175 55-17-10-28-26-33-46l33-7c5 56 141 63 141-1 0-78-155-14-162-118-5-82 145-84 179-34 5 7 8 16 11 25" id="ax"/><path fill="#3a414a" d="M59-47c-2 24 18 29 38 22v24C64 9 27 4 27-40v-127H5v-23h24l9-43h21v43h35v23H59v120" id="ay"/><path fill="#3a414a" d="M141-36C126-15 110 5 73 4 37 3 15-17 15-53c-1-64 63-63 125-63 3-35-9-54-41-54-24 1-41 7-42 31l-33-3c5-37 33-52 76-52 45 0 72 20 72 64v82c-1 20 7 32 28 27v20c-31 9-61-2-59-35zM48-53c0 20 12 33 32 33 41-3 63-29 60-74-43 2-92-5-92 41" id="az"/><path fill="#3a414a" d="M114-163C36-179 61-72 57 0H25l-1-190h30c1 12-1 29 2 39 6-27 23-49 58-41v29" id="aA"/><g id="a"><use transform="matrix(0.06172839506172839,0,0,0.06172839506172839,0,0)" xlink:href="#ax"/><use transform="matrix(0.06172839506172839,0,0,0.06172839506172839,14.814814814814813,0)" xlink:href="#ay"/><use transform="matrix(0.06172839506172839,0,0,0.06172839506172839,20.98765432098765,0)" xlink:href="#az"/><use transform="matrix(0.06172839506172839,0,0,0.06172839506172839,33.33333333333333,0)" xlink:href="#aA"/><use transform="matrix(0.06172839506172839,0,0,0.06172839506172839,40.679012345679006,0)" xlink:href="#ay"/></g><path fill="#3a414a" d="M127-220V0H93v-220H8v-28h204v28h-85" id="aB"/><path fill="#3a414a" d="M197 0v-115H63V0H30v-248h33v105h134v-105h34V0h-34" id="aC"/><path fill="#3a414a" d="M30 0v-248h187v28H63v79h144v27H63v87h162V0H30" id="aD"/><g id="b"><use transform="matrix(0.06172839506172839,0,0,0.06172839506172839,0,0)" xlink:href="#aB"/><use transform="matrix(0.06172839506172839,0,0,0.06172839506172839,13.518518518518517,0)" xlink:href="#aC"/><use transform="matrix(0.06172839506172839,0,0,0.06172839506172839,29.50617283950617,0)" xlink:href="#aD"/></g><path fill="#3a414a" d="M190 0L58-211 59 0H30v-248h39L202-35l-2-213h31V0h-41" id="aE"/><path fill="#3a414a" d="M30-248c118-7 216 8 213 122C240-48 200 0 122 0H30v-248zM63-27c89 8 146-16 146-99s-60-101-146-95v194" id="aF"/><g id="c"><use transform="matrix(0.06172839506172839,0,0,0.06172839506172839,0,0)" xlink:href="#aD"/><use transform="matrix(0.06172839506172839,0,0,0.06172839506172839,14.814814814814813,0)" xlink:href="#aE"/><use transform="matrix(0.06172839506172839,0,0,0.06172839506172839,30.80246913580247,0)" xlink:href="#aF"/></g><use transform="matrix(0.06172839506172839,0,0,0.06172839506172839,0,0)" xlink:href="#az" id="d"/><use transform="matrix(0.06172839506172839,0,0,0.06172839506172839,0,0)" xlink:href="#az" id="e"/><path fill="#3a414a" d="M210-169c-67 3-38 105-44 169h-31v-121c0-29-5-50-35-48C34-165 62-65 56 0H25l-1-190h30c1 10-1 24 2 32 10-44 99-50 107 0 11-21 27-35 58-36 85-2 47 119 55 194h-31v-121c0-29-5-49-35-48" id="aG"/><path fill="#3a414a" d="M100-194c62-1 85 37 85 99 1 63-27 99-86 99S16-35 15-95c0-66 28-99 85-99zM99-20c44 1 53-31 53-75 0-43-8-75-51-75s-53 32-53 75 10 74 51 75" id="aH"/><path fill="#3a414a" d="M85-194c31 0 48 13 60 33l-1-100h32l1 261h-30c-2-10 0-23-3-31C134-8 116 4 85 4 32 4 16-35 15-94c0-66 23-100 70-100zm9 24c-40 0-46 34-46 75 0 40 6 74 45 74 42 0 51-32 51-76 0-42-9-74-50-73" id="aI"/><g id="f"><use transform="matrix(0.06172839506172839,0,0,0.06172839506172839,0,0)" xlink:href="#aG"/><use transform="matrix(0.06172839506172839,0,0,0.06172839506172839,18.456790123456788,0)" xlink:href="#aH"/><use transform="matrix(0.06172839506172839,0,0,0.06172839506172839,30.80246913580247,0)" xlink:href="#aI"/></g><path fill="#3a414a" d="M101-251c82-7 93 87 43 132L82-64C71-53 59-42 53-27h129V0H18c2-99 128-94 128-182 0-28-16-43-45-43s-46 15-49 41l-32-3c6-41 34-60 81-64" id="aJ"/><use transform="matrix(0.06172839506172839,0,0,0.06172839506172839,0,0)" xlink:href="#aJ" id="g"/><path fill="#3a414a" d="M18-150v-26h174v26H18zm0 90v-26h174v26H18" id="aK"/><use transform="matrix(0.06172839506172839,0,0,0.06172839506172839,0,0)" xlink:href="#aK" id="h"/><path fill="#3a414a" d="M101-251c68 0 85 55 85 127S166 4 100 4C33 4 14-52 14-124c0-73 17-127 87-127zm-1 229c47 0 54-49 54-102s-4-102-53-102c-51 0-55 48-55 102 0 53 5 102 54 102" id="aL"/><use transform="matrix(0.06172839506172839,0,0,0.06172839506172839,0,0)" xlink:href="#aL" id="i"/><path fill="#3a414a" d="M140-251c81 0 123 46 123 126C263-46 219 4 140 4 59 4 17-45 17-125s42-126 123-126zm0 227c63 0 89-41 89-101s-29-99-89-99c-61 0-89 39-89 99S79-25 140-24" id="aM"/><g id="j"><use transform="matrix(0.06172839506172839,0,0,0.06172839506172839,0,0)" xlink:href="#aM"/><use transform="matrix(0.06172839506172839,0,0,0.06172839506172839,17.28395061728395,0)" xlink:href="#aI"/><use transform="matrix(0.06172839506172839,0,0,0.06172839506172839,29.629629629629626,0)" xlink:href="#aI"/></g><path fill="#3a414a" d="M117-194c89-4 53 116 60 194h-32v-121c0-31-8-49-39-48C34-167 62-67 57 0H25l-1-190h30c1 10-1 24 2 32 11-22 29-35 61-36" id="aN"/><path fill="#3a414a" d="M84 4C-5 8 30-112 23-190h32v120c0 31 7 50 39 49 72-2 45-101 50-169h31l1 190h-30c-1-10 1-25-2-33-11 22-28 36-60 37" id="aO"/><path fill="#3a414a" d="M115-194c53 0 69 39 70 98 0 66-23 100-70 100C84 3 66-7 56-30L54 0H23l1-261h32v101c10-23 28-34 59-34zm-8 174c40 0 45-34 45-75 0-40-5-75-45-74-42 0-51 32-51 76 0 43 10 73 51 73" id="aP"/><path fill="#3a414a" d="M100-194c63 0 86 42 84 106H49c0 40 14 67 53 68 26 1 43-12 49-29l28 8c-11 28-37 45-77 45C44 4 14-33 15-96c1-61 26-98 85-98zm52 81c6-60-76-77-97-28-3 7-6 17-6 28h103" id="aQ"/><g id="k"><use transform="matrix(0.06172839506172839,0,0,0.06172839506172839,0,0)" xlink:href="#aN"/><use transform="matrix(0.06172839506172839,0,0,0.06172839506172839,12.345679012345679,0)" xlink:href="#aO"/><use transform="matrix(0.06172839506172839,0,0,0.06172839506172839,24.691358024691358,0)" xlink:href="#aG"/><use transform="matrix(0.06172839506172839,0,0,0.06172839506172839,43.148148148148145,0)" xlink:href="#aP"/><use transform="matrix(0.06172839506172839,0,0,0.06172839506172839,55.49382716049382,0)" xlink:href="#aQ"/><use transform="matrix(0.06172839506172839,0,0,0.06172839506172839,67.8395061728395,0)" xlink:href="#aA"/></g><path fill="#3a414a" d="M108 0H70L1-190h34L89-25l56-165h34" id="aR"/><g id="l"><use transform="matrix(0.06172839506172839,0,0,0.06172839506172839,0,0)" xlink:href="#aD"/><use transform="matrix(0.06172839506172839,0,0,0.06172839506172839,14.814814814814813,0)" xlink:href="#aR"/><use transform="matrix(0.06172839506172839,0,0,0.06172839506172839,25.925925925925924,0)" xlink:href="#aQ"/><use transform="matrix(0.06172839506172839,0,0,0.06172839506172839,38.2716049382716,0)" xlink:href="#aN"/></g><path fill="#333" d="M175 0L67-191c6 58 2 128 3 191H24v-248h59L193-55c-6-58-2-129-3-193h46V0h-61" id="aS"/><path fill="#333" d="M110-194c64 0 96 36 96 99 0 64-35 99-97 99-61 0-95-36-95-99 0-62 34-99 96-99zm-1 164c35 0 45-28 45-65 0-40-10-65-43-65-34 0-45 26-45 65 0 36 10 65 43 65" id="aT"/><g id="m"><use transform="matrix(0.04938271604938272,0,0,0.04938271604938272,0,0)" xlink:href="#aS"/><use transform="matrix(0.04938271604938272,0,0,0.04938271604938272,12.790123456790125,0)" xlink:href="#aT"/></g><path fill="#333" d="M146-102V0H94v-102L6-248h54l60 105 60-105h54" id="aU"/><path fill="#333" d="M185-48c-13 30-37 53-82 52C43 2 14-33 14-96s30-98 90-98c62 0 83 45 84 108H66c0 31 8 55 39 56 18 0 30-7 34-22zm-45-69c5-46-57-63-70-21-2 6-4 13-4 21h74" id="aV"/><path fill="#333" d="M137-138c1-29-70-34-71-4 15 46 118 7 119 86 1 83-164 76-172 9l43-7c4 19 20 25 44 25 33 8 57-30 24-41C81-84 22-81 20-136c-2-80 154-74 161-7" id="aW"/><g id="n"><use transform="matrix(0.04938271604938272,0,0,0.04938271604938272,0,0)" xlink:href="#aU"/><use transform="matrix(0.04938271604938272,0,0,0.04938271604938272,10.864197530864198,0)" xlink:href="#aV"/><use transform="matrix(0.04938271604938272,0,0,0.04938271604938272,20.74074074074074,0)" xlink:href="#aW"/></g><path fill="#3a414a" d="M68-38c1 34 0 65-14 84H32c9-13 17-26 17-46H33v-38h35" id="aX"/><g id="o"><use transform="matrix(0.06172839506172839,0,0,0.06172839506172839,0,0)" xlink:href="#az"/><use transform="matrix(0.06172839506172839,0,0,0.06172839506172839,12.345679012345679,0)" xlink:href="#aX"/><use transform="matrix(0.06172839506172839,0,0,0.06172839506172839,18.51851851851852,0)" xlink:href="#aP"/></g><use transform="matrix(0.06172839506172839,0,0,0.06172839506172839,0,0)" xlink:href="#aP" id="p"/><use transform="matrix(0.06172839506172839,0,0,0.06172839506172839,0,0)" xlink:href="#az" id="q"/><g id="r"><use transform="matrix(0.06172839506172839,0,0,0.06172839506172839,0,0)" xlink:href="#aE"/><use transform="matrix(0.06172839506172839,0,0,0.06172839506172839,15.987654320987653,0)" xlink:href="#aH"/><use transform="matrix(0.06172839506172839,0,0,0.06172839506172839,28.333333333333332,0)" xlink:href="#ay"/></g><path fill="#3a414a" d="M24-231v-30h32v30H24zM24 0v-190h32V0H24" id="aY"/><g id="s"><use transform="matrix(0.06172839506172839,0,0,0.06172839506172839,0,0)" xlink:href="#aI"/><use transform="matrix(0.06172839506172839,0,0,0.06172839506172839,12.345679012345679,0)" xlink:href="#aY"/><use transform="matrix(0.06172839506172839,0,0,0.06172839506172839,17.22222222222222,0)" xlink:href="#aR"/><use transform="matrix(0.06172839506172839,0,0,0.06172839506172839,28.333333333333332,0)" xlink:href="#aY"/><use transform="matrix(0.06172839506172839,0,0,0.06172839506172839,33.20987654320987,0)" xlink:href="#aI"/><use transform="matrix(0.06172839506172839,0,0,0.06172839506172839,45.55555555555555,0)" xlink:href="#aQ"/><use transform="matrix(0.06172839506172839,0,0,0.06172839506172839,57.90123456790123,0)" xlink:href="#aI"/></g><path fill="#3a414a" d="M0 4l72-265h28L28 4H0" id="aZ"/><g id="t"><use transform="matrix(0.06172839506172839,0,0,0.06172839506172839,0,0)" xlink:href="#aP"/><use transform="matrix(0.06172839506172839,0,0,0.06172839506172839,12.345679012345679,0)" xlink:href="#aZ"/><use transform="matrix(0.06172839506172839,0,0,0.06172839506172839,18.51851851851852,0)" xlink:href="#az"/></g><path fill="#3a414a" d="M135-143c-3-34-86-38-87 0 15 53 115 12 119 90S17 21 10-45l28-5c4 36 97 45 98 0-10-56-113-15-118-90-4-57 82-63 122-42 12 7 21 19 24 35" id="ba"/><path fill="#3a414a" d="M143 0L79-87 56-68V0H24v-261h32v163l83-92h37l-77 82L181 0h-38" id="bb"/><g id="u"><use transform="matrix(0.06172839506172839,0,0,0.06172839506172839,0,0)" xlink:href="#aB"/><use transform="matrix(0.06172839506172839,0,0,0.06172839506172839,11.049382716049381,0)" xlink:href="#az"/><use transform="matrix(0.06172839506172839,0,0,0.06172839506172839,23.39506172839506,0)" xlink:href="#ba"/><use transform="matrix(0.06172839506172839,0,0,0.06172839506172839,34.50617283950617,0)" xlink:href="#bb"/></g><path fill="#3a414a" d="M27 0v-27h64v-190l-56 39v-29l58-41h29v221h61V0H27" id="bc"/><path fill="#3a414a" d="M33-261c38 41 65 92 65 168S71 34 33 75H2C39 34 66-17 66-93S39-220 2-261h31" id="bd"/><g id="v"><use transform="matrix(0.06172839506172839,0,0,0.06172839506172839,0,0)" xlink:href="#bc"/><use transform="matrix(0.06172839506172839,0,0,0.06172839506172839,12.345679012345679,0)" xlink:href="#bd"/></g><g id="w"><use transform="matrix(0.06172839506172839,0,0,0.06172839506172839,0,0)" xlink:href="#aJ"/><use transform="matrix(0.06172839506172839,0,0,0.06172839506172839,12.345679012345679,0)" xlink:href="#bd"/></g><g id="x"><use transform="matrix(0.06172839506172839,0,0,0.06172839506172839,0,0)" xlink:href="#bc"/><use transform="matrix(0.06172839506172839,0,0,0.06172839506172839,12.345679012345679,0)" xlink:href="#aL"/></g><path fill="#3a414a" d="M64 0c3-98 48-159 88-221H18v-27h164v26C143-157 98-101 97 0H64" id="be"/><use transform="matrix(0.06172839506172839,0,0,0.06172839506172839,0,0)" xlink:href="#be" id="y"/><g id="z"><use transform="matrix(0.06172839506172839,0,0,0.06172839506172839,0,0)" xlink:href="#aE"/><use transform="matrix(0.06172839506172839,0,0,0.06172839506172839,15.987654320987653,0)" xlink:href="#aH"/></g><path fill="#3a414a" d="M137-103V0h-34v-103L8-248h37l75 118 75-118h37" id="bf"/><g id="A"><use transform="matrix(0.06172839506172839,0,0,0.06172839506172839,0,0)" xlink:href="#bf"/><use transform="matrix(0.06172839506172839,0,0,0.06172839506172839,12.777777777777777,0)" xlink:href="#aQ"/><use transform="matrix(0.06172839506172839,0,0,0.06172839506172839,25.123456790123456,0)" xlink:href="#ba"/></g><path fill="#3a414a" d="M126-127c33 6 58 20 58 59 0 88-139 92-164 29-3-8-5-16-6-25l32-3c6 27 21 44 54 44 32 0 52-15 52-46 0-38-36-46-79-43v-28c39 1 72-4 72-42 0-27-17-43-46-43-28 0-47 15-49 41l-32-3c6-42 35-63 81-64 48-1 79 21 79 65 0 36-21 52-52 59" id="bg"/><g id="B"><use transform="matrix(0.06172839506172839,0,0,0.06172839506172839,0,0)" xlink:href="#bg"/><use transform="matrix(0.06172839506172839,0,0,0.06172839506172839,12.345679012345679,0)" xlink:href="#bd"/></g><path d="M27 0v-27h64v-190l-56 39v-29l58-41h29v221h61V0H27" id="bh"/><path d="M101-251c68 0 85 55 85 127S166 4 100 4C33 4 14-52 14-124c0-73 17-127 87-127zm-1 229c47 0 54-49 54-102s-4-102-53-102c-51 0-55 48-55 102 0 53 5 102 54 102" id="bi"/><g id="C"><use transform="matrix(0.06666666666666667,0,0,0.06666666666666667,0,0)" xlink:href="#bh"/><use transform="matrix(0.06666666666666667,0,0,0.06666666666666667,13.333333333333334,0)" xlink:href="#bi"/></g><path d="M18-100v-36l175-74v27L42-118l151 64v27" id="bj"/><path d="M18-150v-26h174v26H18zm0 90v-26h174v26H18" id="bk"/><g id="D"><use transform="matrix(0.06666666666666667,0,0,0.06666666666666667,0,0)" xlink:href="#bj"/><use transform="matrix(0.06666666666666667,0,0,0.06666666666666667,14,0)" xlink:href="#bk"/></g><path d="M141-36C126-15 110 5 73 4 37 3 15-17 15-53c-1-64 63-63 125-63 3-35-9-54-41-54-24 1-41 7-42 31l-33-3c5-37 33-52 76-52 45 0 72 20 72 64v82c-1 20 7 32 28 27v20c-31 9-61-2-59-35zM48-53c0 20 12 33 32 33 41-3 63-29 60-74-43 2-92-5-92 41" id="bl"/><use transform="matrix(0.06666666666666667,0,0,0.06666666666666667,0,0)" xlink:href="#bl" id="E"/><use transform="matrix(0.06666666666666667,0,0,0.06666666666666667,0,0)" xlink:href="#bj" id="F"/><g id="G"><use transform="matrix(0.06666666666666667,0,0,0.06666666666666667,0,0)" xlink:href="#bh"/><use transform="matrix(0.06666666666666667,0,0,0.06666666666666667,13.333333333333334,0)" xlink:href="#bi"/><use transform="matrix(0.06666666666666667,0,0,0.06666666666666667,26.666666666666668,0)" xlink:href="#bi"/></g><path fill="#3a414a" d="M177-190C167-65 218 103 67 71c-23-6-38-20-44-43l32-5c15 47 100 32 89-28v-30C133-14 115 1 83 1 29 1 15-40 15-95c0-56 16-97 71-98 29-1 48 16 59 35 1-10 0-23 2-32h30zM94-22c36 0 50-32 50-73 0-42-14-75-50-75-39 0-46 34-46 75s6 73 46 73" id="bm"/><path fill="#3a414a" d="M24 0v-261h32V0H24" id="bn"/><g id="H"><use transform="matrix(0.06172839506172839,0,0,0.06172839506172839,0,0)" xlink:href="#aI"/><use transform="matrix(0.06172839506172839,0,0,0.06172839506172839,12.345679012345679,0)" xlink:href="#aY"/><use transform="matrix(0.06172839506172839,0,0,0.06172839506172839,17.22222222222222,0)" xlink:href="#bm"/><use transform="matrix(0.06172839506172839,0,0,0.06172839506172839,29.5679012345679,0)" xlink:href="#aY"/><use transform="matrix(0.06172839506172839,0,0,0.06172839506172839,34.44444444444444,0)" xlink:href="#ay"/><use transform="matrix(0.06172839506172839,0,0,0.06172839506172839,40.617283950617285,0)" xlink:href="#bn"/><use transform="matrix(0.06172839506172839,0,0,0.06172839506172839,45.49382716049383,0)" xlink:href="#az"/><use transform="matrix(0.06172839506172839,0,0,0.06172839506172839,57.839506172839506,0)" xlink:href="#ba"/><use transform="matrix(0.06172839506172839,0,0,0.06172839506172839,68.95061728395062,0)" xlink:href="#ay"/></g><path fill="#3a414a" d="M101-234c-31-9-42 10-38 44h38v23H63V0H32v-167H5v-23h27c-7-52 17-82 69-68v24" id="bo"/><g id="I"><use transform="matrix(0.06172839506172839,0,0,0.06172839506172839,0,0)" xlink:href="#aI"/><use transform="matrix(0.06172839506172839,0,0,0.06172839506172839,12.345679012345679,0)" xlink:href="#aY"/><use transform="matrix(0.06172839506172839,0,0,0.06172839506172839,17.22222222222222,0)" xlink:href="#bm"/><use transform="matrix(0.06172839506172839,0,0,0.06172839506172839,29.5679012345679,0)" xlink:href="#aY"/><use transform="matrix(0.06172839506172839,0,0,0.06172839506172839,34.44444444444444,0)" xlink:href="#ay"/><use transform="matrix(0.06172839506172839,0,0,0.06172839506172839,40.617283950617285,0)" xlink:href="#bo"/><use transform="matrix(0.06172839506172839,0,0,0.06172839506172839,46.79012345679013,0)" xlink:href="#aY"/><use transform="matrix(0.06172839506172839,0,0,0.06172839506172839,51.66666666666667,0)" xlink:href="#aA"/><use transform="matrix(0.06172839506172839,0,0,0.06172839506172839,59.01234567901235,0)" xlink:href="#ba"/><use transform="matrix(0.06172839506172839,0,0,0.06172839506172839,70.12345679012346,0)" xlink:href="#ay"/></g><g id="J"><use transform="matrix(0.06172839506172839,0,0,0.06172839506172839,0,0)" xlink:href="#aI"/><use transform="matrix(0.06172839506172839,0,0,0.06172839506172839,12.345679012345679,0)" xlink:href="#aY"/><use transform="matrix(0.06172839506172839,0,0,0.06172839506172839,17.22222222222222,0)" xlink:href="#bm"/><use transform="matrix(0.06172839506172839,0,0,0.06172839506172839,29.5679012345679,0)" xlink:href="#aY"/><use transform="matrix(0.06172839506172839,0,0,0.06172839506172839,34.44444444444444,0)" xlink:href="#ay"/><use transform="matrix(0.06172839506172839,0,0,0.06172839506172839,40.617283950617285,0)" xlink:href="#bn"/><use transform="matrix(0.06172839506172839,0,0,0.06172839506172839,45.49382716049383,0)" xlink:href="#az"/><use transform="matrix(0.06172839506172839,0,0,0.06172839506172839,57.839506172839506,0)" xlink:href="#ba"/><use transform="matrix(0.06172839506172839,0,0,0.06172839506172839,68.95061728395062,0)" xlink:href="#ay"/></g><use transform="matrix(0.06172839506172839,0,0,0.06172839506172839,0,0)" xlink:href="#az" id="K"/><g id="L"><use transform="matrix(0.06172839506172839,0,0,0.06172839506172839,0,0)" xlink:href="#aI"/><use transform="matrix(0.06172839506172839,0,0,0.06172839506172839,12.345679012345679,0)" xlink:href="#aY"/><use transform="matrix(0.06172839506172839,0,0,0.06172839506172839,17.22222222222222,0)" xlink:href="#bm"/><use transform="matrix(0.06172839506172839,0,0,0.06172839506172839,29.5679012345679,0)" xlink:href="#aY"/><use transform="matrix(0.06172839506172839,0,0,0.06172839506172839,34.44444444444444,0)" xlink:href="#ay"/><use transform="matrix(0.06172839506172839,0,0,0.06172839506172839,40.617283950617285,0)" xlink:href="#bo"/><use transform="matrix(0.06172839506172839,0,0,0.06172839506172839,46.79012345679013,0)" xlink:href="#aY"/><use transform="matrix(0.06172839506172839,0,0,0.06172839506172839,51.66666666666667,0)" xlink:href="#aA"/><use transform="matrix(0.06172839506172839,0,0,0.06172839506172839,59.01234567901235,0)" xlink:href="#ba"/><use transform="matrix(0.06172839506172839,0,0,0.06172839506172839,70.12345679012346,0)" xlink:href="#ay"/></g><g id="M"><use transform="matrix(0.06172839506172839,0,0,0.06172839506172839,0,0)" xlink:href="#az"/><use transform="matrix(0.06172839506172839,0,0,0.06172839506172839,12.345679012345679,0)" xlink:href="#aZ"/><use transform="matrix(0.06172839506172839,0,0,0.06172839506172839,18.51851851851852,0)" xlink:href="#bc"/><use transform="matrix(0.06172839506172839,0,0,0.06172839506172839,30.864197530864196,0)" xlink:href="#aL"/></g><use transform="matrix(0.06172839506172839,0,0,0.06172839506172839,0,0)" xlink:href="#aK" id="N"/><g id="O"><use transform="matrix(0.06172839506172839,0,0,0.06172839506172839,0,0)" xlink:href="#aI"/><use transform="matrix(0.06172839506172839,0,0,0.06172839506172839,12.345679012345679,0)" xlink:href="#aY"/><use transform="matrix(0.06172839506172839,0,0,0.06172839506172839,17.22222222222222,0)" xlink:href="#bm"/><use transform="matrix(0.06172839506172839,0,0,0.06172839506172839,29.5679012345679,0)" xlink:href="#aY"/><use transform="matrix(0.06172839506172839,0,0,0.06172839506172839,34.44444444444444,0)" xlink:href="#ay"/></g><g id="P"><use transform="matrix(0.06172839506172839,0,0,0.06172839506172839,0,0)" xlink:href="#bo"/><use transform="matrix(0.06172839506172839,0,0,0.06172839506172839,6.172839506172839,0)" xlink:href="#aY"/><use transform="matrix(0.06172839506172839,0,0,0.06172839506172839,11.049382716049383,0)" xlink:href="#aA"/><use transform="matrix(0.06172839506172839,0,0,0.06172839506172839,18.395061728395063,0)" xlink:href="#ba"/><use transform="matrix(0.06172839506172839,0,0,0.06172839506172839,29.506172839506174,0)" xlink:href="#ay"/></g><g id="Q"><use transform="matrix(0.06172839506172839,0,0,0.06172839506172839,0,0)" xlink:href="#ax"/><use transform="matrix(0.06172839506172839,0,0,0.06172839506172839,14.814814814814813,0)" xlink:href="#aO"/><use transform="matrix(0.06172839506172839,0,0,0.06172839506172839,27.160493827160494,0)" xlink:href="#aG"/></g><path fill="#3a414a" d="M115-194c55 1 70 41 70 98S169 2 115 4C84 4 66-9 55-30l1 105H24l-1-265h31l2 30c10-21 28-34 59-34zm-8 174c40 0 45-34 45-75s-6-73-45-74c-42 0-51 32-51 76 0 43 10 73 51 73" id="bp"/><path fill="#3a414a" d="M96-169c-40 0-48 33-48 73s9 75 48 75c24 0 41-14 43-38l32 2c-6 37-31 61-74 61-59 0-76-41-82-99-10-93 101-131 147-64 4 7 5 14 7 22l-32 3c-4-21-16-35-41-35" id="bq"/><g id="R"><use transform="matrix(0.06172839506172839,0,0,0.06172839506172839,0,0)" xlink:href="#aG"/><use transform="matrix(0.06172839506172839,0,0,0.06172839506172839,18.456790123456788,0)" xlink:href="#aO"/><use transform="matrix(0.06172839506172839,0,0,0.06172839506172839,30.80246913580247,0)" xlink:href="#bn"/><use transform="matrix(0.06172839506172839,0,0,0.06172839506172839,35.67901234567901,0)" xlink:href="#ay"/><use transform="matrix(0.06172839506172839,0,0,0.06172839506172839,41.851851851851855,0)" xlink:href="#aY"/><use transform="matrix(0.06172839506172839,0,0,0.06172839506172839,46.7283950617284,0)" xlink:href="#bp"/><use transform="matrix(0.06172839506172839,0,0,0.06172839506172839,59.074074074074076,0)" xlink:href="#bn"/><use transform="matrix(0.06172839506172839,0,0,0.06172839506172839,63.95061728395061,0)" xlink:href="#aY"/><use transform="matrix(0.06172839506172839,0,0,0.06172839506172839,68.82716049382717,0)" xlink:href="#bq"/><use transform="matrix(0.06172839506172839,0,0,0.06172839506172839,79.93827160493828,0)" xlink:href="#az"/><use transform="matrix(0.06172839506172839,0,0,0.06172839506172839,92.28395061728396,0)" xlink:href="#ay"/><use transform="matrix(0.06172839506172839,0,0,0.06172839506172839,98.4567901234568,0)" xlink:href="#aY"/><use transform="matrix(0.06172839506172839,0,0,0.06172839506172839,103.33333333333334,0)" xlink:href="#aH"/><use transform="matrix(0.06172839506172839,0,0,0.06172839506172839,115.67901234567903,0)" xlink:href="#aN"/></g><path fill="#3a414a" d="M18-27v-27l151-64-151-65v-27l175 74v36" id="br"/><g id="S"><use transform="matrix(0.06172839506172839,0,0,0.06172839506172839,0,0)" xlink:href="#az"/><use transform="matrix(0.06172839506172839,0,0,0.06172839506172839,12.345679012345679,0)" xlink:href="#br"/><use transform="matrix(0.06172839506172839,0,0,0.06172839506172839,25.30864197530864,0)" xlink:href="#aL"/></g><path d="M135-143c-3-34-86-38-87 0 15 53 115 12 119 90S17 21 10-45l28-5c4 36 97 45 98 0-10-56-113-15-118-90-4-57 82-63 122-42 12 7 21 19 24 35" id="bs"/><path d="M84 4C-5 8 30-112 23-190h32v120c0 31 7 50 39 49 72-2 45-101 50-169h31l1 190h-30c-1-10 1-25-2-33-11 22-28 36-60 37" id="bt"/><path d="M210-169c-67 3-38 105-44 169h-31v-121c0-29-5-50-35-48C34-165 62-65 56 0H25l-1-190h30c1 10-1 24 2 32 10-44 99-50 107 0 11-21 27-35 58-36 85-2 47 119 55 194h-31v-121c0-29-5-49-35-48" id="bu"/><g id="T"><use transform="matrix(0.05185185185185186,0,0,0.05185185185185186,0,0)" xlink:href="#bs"/><use transform="matrix(0.05185185185185186,0,0,0.05185185185185186,9.333333333333334,0)" xlink:href="#bt"/><use transform="matrix(0.05185185185185186,0,0,0.05185185185185186,19.703703703703706,0)" xlink:href="#bu"/></g><use transform="matrix(0.05185185185185186,0,0,0.05185185185185186,0,0)" xlink:href="#bk" id="U"/><g id="V"><use transform="matrix(0.05185185185185186,0,0,0.05185185185185186,0,0)" xlink:href="#bs"/><use transform="matrix(0.05185185185185186,0,0,0.05185185185185186,9.333333333333334,0)" xlink:href="#bt"/><use transform="matrix(0.05185185185185186,0,0,0.05185185185185186,19.703703703703706,0)" xlink:href="#bu"/></g><path d="M118-107v75H92v-75H18v-26h74v-75h26v75h74v26h-74" id="bv"/><use transform="matrix(0.05185185185185186,0,0,0.05185185185185186,0,0)" xlink:href="#bv" id="W"/><path d="M87 75C49 33 22-17 22-94c0-76 28-126 65-167h31c-38 41-64 92-64 168S80 34 118 75H87" id="bw"/><g id="X"><use transform="matrix(0.05185185185185186,0,0,0.05185185185185186,0,0)" xlink:href="#bw"/><use transform="matrix(0.05185185185185186,0,0,0.05185185185185186,6.170370370370371,0)" xlink:href="#bl"/></g><path d="M100-194c62-1 85 37 85 99 1 63-27 99-86 99S16-35 15-95c0-66 28-99 85-99zM99-20c44 1 53-31 53-75 0-43-8-75-51-75s-53 32-53 75 10 74 51 75" id="bx"/><path d="M85-194c31 0 48 13 60 33l-1-100h32l1 261h-30c-2-10 0-23-3-31C134-8 116 4 85 4 32 4 16-35 15-94c0-66 23-100 70-100zm9 24c-40 0-46 34-46 75 0 40 6 74 45 74 42 0 51-32 51-76 0-42-9-74-50-73" id="by"/><g id="Y"><use transform="matrix(0.05185185185185186,0,0,0.05185185185185186,0,0)" xlink:href="#bu"/><use transform="matrix(0.05185185185185186,0,0,0.05185185185185186,15.503703703703705,0)" xlink:href="#bx"/><use transform="matrix(0.05185185185185186,0,0,0.05185185185185186,25.874074074074077,0)" xlink:href="#by"/></g><path d="M33-261c38 41 65 92 65 168S71 34 33 75H2C39 34 66-17 66-93S39-220 2-261h31" id="bz"/><g id="Z"><use transform="matrix(0.05185185185185186,0,0,0.05185185185185186,0,0)" xlink:href="#bh"/><use transform="matrix(0.05185185185185186,0,0,0.05185185185185186,10.370370370370372,0)" xlink:href="#bi"/><use transform="matrix(0.05185185185185186,0,0,0.05185185185185186,20.740740740740744,0)" xlink:href="#bz"/></g><path d="M24 0v-261h32V0H24" id="bA"/><path d="M59-47c-2 24 18 29 38 22v24C64 9 27 4 27-40v-127H5v-23h24l9-43h21v43h35v23H59v120" id="bB"/><path d="M24-231v-30h32v30H24zM24 0v-190h32V0H24" id="bC"/><path d="M115-194c55 1 70 41 70 98S169 2 115 4C84 4 66-9 55-30l1 105H24l-1-265h31l2 30c10-21 28-34 59-34zm-8 174c40 0 45-34 45-75s-6-73-45-74c-42 0-51 32-51 76 0 43 10 73 51 73" id="bD"/><path d="M96-169c-40 0-48 33-48 73s9 75 48 75c24 0 41-14 43-38l32 2c-6 37-31 61-74 61-59 0-76-41-82-99-10-93 101-131 147-64 4 7 5 14 7 22l-32 3c-4-21-16-35-41-35" id="bE"/><path d="M117-194c89-4 53 116 60 194h-32v-121c0-31-8-49-39-48C34-167 62-67 57 0H25l-1-190h30c1 10-1 24 2 32 11-22 29-35 61-36" id="bF"/><g id="aa"><use transform="matrix(0.05185185185185186,0,0,0.05185185185185186,0,0)" xlink:href="#bu"/><use transform="matrix(0.05185185185185186,0,0,0.05185185185185186,15.503703703703705,0)" xlink:href="#bt"/><use transform="matrix(0.05185185185185186,0,0,0.05185185185185186,25.874074074074077,0)" xlink:href="#bA"/><use transform="matrix(0.05185185185185186,0,0,0.05185185185185186,29.970370370370375,0)" xlink:href="#bB"/><use transform="matrix(0.05185185185185186,0,0,0.05185185185185186,35.15555555555556,0)" xlink:href="#bC"/><use transform="matrix(0.05185185185185186,0,0,0.05185185185185186,39.25185185185185,0)" xlink:href="#bD"/><use transform="matrix(0.05185185185185186,0,0,0.05185185185185186,49.62222222222223,0)" xlink:href="#bA"/><use transform="matrix(0.05185185185185186,0,0,0.05185185185185186,53.71851851851852,0)" xlink:href="#bC"/><use transform="matrix(0.05185185185185186,0,0,0.05185185185185186,57.814814814814824,0)" xlink:href="#bE"/><use transform="matrix(0.05185185185185186,0,0,0.05185185185185186,67.14814814814815,0)" xlink:href="#bl"/><use transform="matrix(0.05185185185185186,0,0,0.05185185185185186,77.51851851851852,0)" xlink:href="#bB"/><use transform="matrix(0.05185185185185186,0,0,0.05185185185185186,82.70370370370371,0)" xlink:href="#bC"/><use transform="matrix(0.05185185185185186,0,0,0.05185185185185186,86.80000000000001,0)" xlink:href="#bx"/><use transform="matrix(0.05185185185185186,0,0,0.05185185185185186,97.17037037037038,0)" xlink:href="#bF"/></g><use transform="matrix(0.05185185185185186,0,0,0.05185185185185186,0,0)" xlink:href="#bk" id="ab"/><g id="ac"><use transform="matrix(0.05185185185185186,0,0,0.05185185185185186,0,0)" xlink:href="#bu"/><use transform="matrix(0.05185185185185186,0,0,0.05185185185185186,15.503703703703705,0)" xlink:href="#bt"/><use transform="matrix(0.05185185185185186,0,0,0.05185185185185186,25.874074074074077,0)" xlink:href="#bA"/><use transform="matrix(0.05185185185185186,0,0,0.05185185185185186,29.970370370370375,0)" xlink:href="#bB"/><use transform="matrix(0.05185185185185186,0,0,0.05185185185185186,35.15555555555556,0)" xlink:href="#bC"/><use transform="matrix(0.05185185185185186,0,0,0.05185185185185186,39.25185185185185,0)" xlink:href="#bD"/><use transform="matrix(0.05185185185185186,0,0,0.05185185185185186,49.62222222222223,0)" xlink:href="#bA"/><use transform="matrix(0.05185185185185186,0,0,0.05185185185185186,53.71851851851852,0)" xlink:href="#bC"/><use transform="matrix(0.05185185185185186,0,0,0.05185185185185186,57.814814814814824,0)" xlink:href="#bE"/><use transform="matrix(0.05185185185185186,0,0,0.05185185185185186,67.14814814814815,0)" xlink:href="#bl"/><use transform="matrix(0.05185185185185186,0,0,0.05185185185185186,77.51851851851852,0)" xlink:href="#bB"/><use transform="matrix(0.05185185185185186,0,0,0.05185185185185186,82.70370370370371,0)" xlink:href="#bC"/><use transform="matrix(0.05185185185185186,0,0,0.05185185185185186,86.80000000000001,0)" xlink:href="#bx"/><use transform="matrix(0.05185185185185186,0,0,0.05185185185185186,97.17037037037038,0)" xlink:href="#bF"/></g><path d="M141 0L90-78 38 0H4l68-98-65-92h35l48 74 47-74h35l-64 92 68 98h-35" id="bG"/><use transform="matrix(0.05185185185185186,0,0,0.05185185185185186,0,0)" xlink:href="#bG" id="ad"/><g id="ae"><use transform="matrix(0.05185185185185186,0,0,0.05185185185185186,0,0)" xlink:href="#bw"/><use transform="matrix(0.05185185185185186,0,0,0.05185185185185186,6.170370370370371,0)" xlink:href="#bl"/></g><g id="af"><use transform="matrix(0.05185185185185186,0,0,0.05185185185185186,0,0)" xlink:href="#bu"/><use transform="matrix(0.05185185185185186,0,0,0.05185185185185186,15.503703703703705,0)" xlink:href="#bx"/><use transform="matrix(0.05185185185185186,0,0,0.05185185185185186,25.874074074074077,0)" xlink:href="#by"/></g><use transform="matrix(0.05185185185185186,0,0,0.05185185185185186,0,0)" xlink:href="#bl" id="ag"/><use transform="matrix(0.05185185185185186,0,0,0.05185185185185186,0,0)" xlink:href="#bl" id="ah"/><path d="M0 4l72-265h28L28 4H0" id="bH"/><use transform="matrix(0.05185185185185186,0,0,0.05185185185185186,0,0)" xlink:href="#bH" id="ai"/><g id="aj"><use transform="matrix(0.05185185185185186,0,0,0.05185185185185186,0,0)" xlink:href="#bh"/><use transform="matrix(0.05185185185185186,0,0,0.05185185185185186,10.370370370370372,0)" xlink:href="#bi"/></g><g id="ak"><use transform="matrix(0.044444444444444446,0,0,0.044444444444444446,0,0)" xlink:href="#bs"/><use transform="matrix(0.044444444444444446,0,0,0.044444444444444446,8,0)" xlink:href="#bt"/><use transform="matrix(0.044444444444444446,0,0,0.044444444444444446,16.88888888888889,0)" xlink:href="#bu"/></g><g id="al"><use transform="matrix(0.044444444444444446,0,0,0.044444444444444446,0,0)" xlink:href="#bu"/><use transform="matrix(0.044444444444444446,0,0,0.044444444444444446,13.28888888888889,0)" xlink:href="#bx"/><use transform="matrix(0.044444444444444446,0,0,0.044444444444444446,22.177777777777777,0)" xlink:href="#by"/></g><path d="M101-251c82-7 93 87 43 132L82-64C71-53 59-42 53-27h129V0H18c2-99 128-94 128-182 0-28-16-43-45-43s-46 15-49 41l-32-3c6-41 34-60 81-64" id="bI"/><use transform="matrix(0.044444444444444446,0,0,0.044444444444444446,0,0)" xlink:href="#bI" id="am"/><use transform="matrix(0.044444444444444446,0,0,0.044444444444444446,0,0)" xlink:href="#bk" id="an"/><use transform="matrix(0.044444444444444446,0,0,0.044444444444444446,0,0)" xlink:href="#bi" id="ao"/><path fill="#3a414a" d="M240 0l2-218c-23 76-54 145-80 218h-23L58-218 59 0H30v-248h44l77 211c21-75 51-140 76-211h43V0h-30" id="bJ"/><g id="ap"><use transform="matrix(0.06172839506172839,0,0,0.06172839506172839,0,0)" xlink:href="#bJ"/><use transform="matrix(0.06172839506172839,0,0,0.06172839506172839,18.456790123456788,0)" xlink:href="#aO"/><use transform="matrix(0.06172839506172839,0,0,0.06172839506172839,30.80246913580247,0)" xlink:href="#bn"/><use transform="matrix(0.06172839506172839,0,0,0.06172839506172839,35.67901234567901,0)" xlink:href="#ay"/><use transform="matrix(0.06172839506172839,0,0,0.06172839506172839,41.851851851851855,0)" xlink:href="#aY"/><use transform="matrix(0.06172839506172839,0,0,0.06172839506172839,46.7283950617284,0)" xlink:href="#bp"/><use transform="matrix(0.06172839506172839,0,0,0.06172839506172839,59.074074074074076,0)" xlink:href="#bn"/><use transform="matrix(0.06172839506172839,0,0,0.06172839506172839,63.95061728395061,0)" xlink:href="#aY"/><use transform="matrix(0.06172839506172839,0,0,0.06172839506172839,68.82716049382717,0)" xlink:href="#bq"/><use transform="matrix(0.06172839506172839,0,0,0.06172839506172839,79.93827160493828,0)" xlink:href="#az"/><use transform="matrix(0.06172839506172839,0,0,0.06172839506172839,92.28395061728396,0)" xlink:href="#ay"/><use transform="matrix(0.06172839506172839,0,0,0.06172839506172839,98.4567901234568,0)" xlink:href="#aY"/><use transform="matrix(0.06172839506172839,0,0,0.06172839506172839,103.33333333333334,0)" xlink:href="#aH"/><use transform="matrix(0.06172839506172839,0,0,0.06172839506172839,115.67901234567903,0)" xlink:href="#aN"/></g><path d="M263-131C263-53 218 5 142 5 61 5 20-55 21-137h205c0-63-33-102-97-101-38 0-66 15-88 34v-38c24-16 53-25 91-25 83 0 131 52 131 136zM59-108C57-39 152 7 200-49c15-17 22-36 24-59H59" id="bK"/><path d="M106 5C46 5 15-40 20-106h149c4-73-92-82-142-50v-31c75-35 175-7 175 87 0 61-35 105-96 105zM52-81c-6 54 63 76 97 43 11-10 17-24 19-43H52" id="bL"/><g id="aq"><use transform="matrix(0.05185185185185186,0,0,0.05185185185185186,0,0)" xlink:href="#bK"/><use transform="matrix(0.05185185185185186,0,0,0.05185185185185186,14.674074074074076,0)" xlink:href="#by"/><use transform="matrix(0.05185185185185186,0,0,0.05185185185185186,25.044444444444448,0)" xlink:href="#bL"/><use transform="matrix(0.05185185185185186,0,0,0.05185185185185186,36.50370370370371,0)" xlink:href="#by"/><use transform="matrix(0.05185185185185186,0,0,0.05185185185185186,46.87407407407408,0)" xlink:href="#by"/><use transform="matrix(0.05185185185185186,0,0,0.05185185185185186,57.24444444444445,0)" xlink:href="#bL"/></g><path d="M143 0L79-87 56-68V0H24v-261h32v163l83-92h37l-77 82L181 0h-38" id="bM"/><g id="ar"><use transform="matrix(0.05185185185185186,0,0,0.05185185185185186,0,0)" xlink:href="#bB"/><use transform="matrix(0.05185185185185186,0,0,0.05185185185185186,5.185185185185186,0)" xlink:href="#bL"/><use transform="matrix(0.05185185185185186,0,0,0.05185185185185186,16.644444444444446,0)" xlink:href="#bM"/></g><path d="M114-163C36-179 61-72 57 0H25l-1-190h30c1 12-1 29 2 39 6-27 23-49 58-41v29" id="bN"/><path d="M145-31C134-9 116 4 85 4 32 4 16-35 15-94c0-59 17-99 70-100 32-1 48 14 60 33 0-11-1-24 2-32h30l-1 268h-32zM93-21c41 0 51-33 51-76s-8-73-50-73c-40 0-46 35-46 75s5 74 45 74" id="bO"/><g id="as"><use transform="matrix(0.05185185185185186,0,0,0.05185185185185186,0,0)" xlink:href="#bN"/><use transform="matrix(0.05185185185185186,0,0,0.05185185185185186,6.170370370370371,0)" xlink:href="#bL"/><use transform="matrix(0.05185185185185186,0,0,0.05185185185185186,17.629629629629633,0)" xlink:href="#bO"/><use transform="matrix(0.05185185185185186,0,0,0.05185185185185186,28.000000000000007,0)" xlink:href="#bL"/><use transform="matrix(0.05185185185185186,0,0,0.05185185185185186,39.45925925925927,0)" xlink:href="#bu"/></g><path d="M100-194c62-1 85 37 85 99 1 63-27 99-86 99S16-35 15-95c0-66 28-99 85-99zM99-20c44 1 53-31 53-75 0-43-8-75-51-75s-53 32-53 75 10 74 51 75zm22-194v-33h29v33h-29zm-69 0v-33h29v33H52" id="bP"/><path d="M108 0H70L1-190h34L89-25l56-165h34" id="bQ"/><g id="at"><use transform="matrix(0.05185185185185186,0,0,0.05185185185185186,0,0)" xlink:href="#bu"/><use transform="matrix(0.05185185185185186,0,0,0.05185185185185186,15.503703703703705,0)" xlink:href="#bP"/><use transform="matrix(0.05185185185185186,0,0,0.05185185185185186,25.874074074074077,0)" xlink:href="#bQ"/><use transform="matrix(0.05185185185185186,0,0,0.05185185185185186,35.20740740740741,0)" xlink:href="#bE"/><use transform="matrix(0.05185185185185186,0,0,0.05185185185185186,44.540740740740745,0)" xlink:href="#bt"/><use transform="matrix(0.05185185185185186,0,0,0.05185185185185186,54.91111111111112,0)" xlink:href="#by"/><use transform="matrix(0.05185185185185186,0,0,0.05185185185185186,65.28148148148149,0)" xlink:href="#by"/><use transform="matrix(0.05185185185185186,0,0,0.05185185185185186,75.65185185185186,0)" xlink:href="#bt"/><use transform="matrix(0.05185185185185186,0,0,0.05185185185185186,86.02222222222223,0)" xlink:href="#bN"/></g><g id="au"><use transform="matrix(0.06172839506172839,0,0,0.06172839506172839,0,0)" xlink:href="#aB"/><use transform="matrix(0.06172839506172839,0,0,0.06172839506172839,11.049382716049381,0)" xlink:href="#az"/><use transform="matrix(0.06172839506172839,0,0,0.06172839506172839,23.39506172839506,0)" xlink:href="#ba"/><use transform="matrix(0.06172839506172839,0,0,0.06172839506172839,34.50617283950617,0)" xlink:href="#bb"/></g><path fill="#3a414a" d="M155-56V0h-30v-56H8v-25l114-167h33v167h35v25h-35zm-30-156c-27 46-58 90-88 131h88v-131" id="bR"/><g id="av"><use transform="matrix(0.06172839506172839,0,0,0.06172839506172839,0,0)" xlink:href="#bR"/><use transform="matrix(0.06172839506172839,0,0,0.06172839506172839,12.345679012345679,0)" xlink:href="#bd"/></g><path fill="#3a414a" d="M54-142c48-35 137-8 131 61C196 18 31 33 14-55l32-4c7 23 22 37 52 37 35-1 51-22 54-58 4-55-73-65-99-34H22l8-134h141v27H59" id="bS"/><g id="aw"><use transform="matrix(0.06172839506172839,0,0,0.06172839506172839,0,0)" xlink:href="#bS"/><use transform="matrix(0.06172839506172839,0,0,0.06172839506172839,12.345679012345679,0)" xlink:href="#bd"/></g></defs></g></svg>